<svg width="400" height="387" viewBox="0 0 400 387" fill="none" xmlns="http://www.w3.org/2000/svg">
<g clip-path="url(#clip0_510_1069)">
<path d="M364.921 370.032C364.493 370.052 364.07 369.939 363.708 369.711C363.347 369.482 363.064 369.147 362.899 368.752C362.734 368.357 362.694 367.921 362.785 367.503C362.876 367.085 363.094 366.705 363.408 366.414L363.551 365.846C363.532 365.8 363.513 365.755 363.494 365.709C363.063 364.692 362.342 363.825 361.42 363.216C360.498 362.608 359.416 362.285 358.312 362.29C357.207 362.294 356.128 362.624 355.211 363.239C354.293 363.855 353.578 364.727 353.155 365.748C351.464 369.821 349.311 373.9 348.781 378.207C348.547 380.11 348.646 382.04 349.072 383.909C345.1 375.246 343.038 365.829 343.025 356.298C343.024 353.906 343.157 351.517 343.423 349.14C343.642 347.191 343.947 345.257 344.337 343.336C346.466 332.914 351.037 323.146 357.674 314.833C360.886 313.081 363.484 310.385 365.117 307.111C365.709 305.934 366.127 304.677 366.359 303.38C365.996 303.428 364.992 297.909 365.266 297.57C364.761 296.804 363.857 296.423 363.305 295.675C360.562 291.957 356.783 292.606 354.81 297.66C350.596 299.787 350.555 303.314 353.141 306.707C354.786 308.865 355.012 311.786 356.456 314.097C356.307 314.287 356.153 314.471 356.005 314.661C353.29 318.152 350.923 321.901 348.94 325.853C349.422 321.425 348.847 316.946 347.26 312.784C345.652 308.905 342.638 305.638 339.985 302.285C336.797 298.257 330.26 300.015 329.698 305.121C329.693 305.17 329.687 305.22 329.682 305.269C330.076 305.492 330.462 305.728 330.84 305.977C331.314 306.294 331.682 306.747 331.894 307.276C332.107 307.806 332.155 308.387 332.031 308.944C331.908 309.501 331.619 310.007 331.203 310.397C330.787 310.787 330.262 311.043 329.698 311.13L329.641 311.138C329.781 312.559 330.029 313.967 330.383 315.35C326.979 328.517 334.329 333.313 344.824 333.528C345.056 333.647 345.282 333.766 345.514 333.879C343.521 339.526 342.271 345.409 341.795 351.379C341.526 354.901 341.541 358.44 341.842 361.959L341.825 361.835C341.064 357.921 338.976 354.389 335.914 351.837C331.365 348.1 324.939 346.724 320.031 343.721C319.51 343.386 318.904 343.207 318.284 343.206C317.664 343.204 317.057 343.38 316.534 343.712C316.01 344.044 315.593 344.519 315.331 345.081C315.069 345.643 314.973 346.268 315.055 346.882C315.061 346.926 315.068 346.969 315.075 347.013C315.806 347.311 316.518 347.654 317.207 348.041C317.601 348.263 317.987 348.499 318.365 348.749C318.839 349.066 319.207 349.519 319.419 350.048C319.632 350.577 319.68 351.158 319.556 351.715C319.433 352.272 319.144 352.779 318.728 353.169C318.312 353.559 317.787 353.814 317.223 353.901L317.166 353.91C317.124 353.916 317.088 353.922 317.047 353.928C318.297 356.912 320.051 359.659 322.233 362.048C324.362 373.542 333.505 374.633 343.286 371.286H343.292C344.365 375.949 345.92 380.488 347.931 384.83H364.505C364.565 384.646 364.618 384.456 364.672 384.272C363.138 384.368 361.597 384.276 360.086 383.998C361.315 382.49 362.545 380.969 363.775 379.46C363.802 379.432 363.828 379.402 363.852 379.371C364.476 378.599 365.105 377.832 365.729 377.06L365.729 377.059C365.763 374.692 365.49 372.33 364.921 370.032Z" fill="#F2F2F2"/>
<path d="M337.304 222.651C341.696 206.702 349.89 193.119 363.12 182.669C363.643 181.86 364.466 181.292 365.407 181.09C366.349 180.887 367.333 181.066 368.143 181.588L398.338 201.084C399.147 201.607 399.715 202.43 399.918 203.372C400.12 204.314 399.941 205.297 399.42 206.107L373.604 246.089C373.081 246.898 372.258 247.466 371.316 247.669C370.375 247.872 369.391 247.693 368.581 247.171L338.386 227.674C337.577 227.151 337.009 226.328 336.806 225.387C336.603 224.445 336.782 223.461 337.304 222.651Z" fill="#F2F2F2"/>
<path d="M347.418 212.071C348.55 203.644 355.521 195.029 364.015 186.366C364.505 185.609 365.275 185.077 366.157 184.887C367.039 184.697 367.96 184.865 368.719 185.353L394.669 202.109C395.427 202.599 395.959 203.37 396.149 204.252C396.339 205.134 396.171 206.055 395.682 206.813L372.71 242.392C372.22 243.15 371.449 243.681 370.567 243.871C369.685 244.061 368.764 243.893 368.006 243.405L351.93 233.025C348.556 230.842 346.187 227.409 345.341 223.481C344.495 219.552 345.242 215.449 347.418 212.071Z" fill="white"/>
<path d="M349.733 246.429C345.902 230.336 346.541 214.486 353.102 198.956C353.171 197.995 353.619 197.101 354.346 196.47C355.074 195.839 356.022 195.522 356.983 195.589L392.836 198.133C393.797 198.202 394.691 198.65 395.322 199.378C395.953 200.105 396.27 201.054 396.203 202.014L392.834 249.487C392.765 250.448 392.317 251.342 391.59 251.973C390.862 252.605 389.914 252.922 388.953 252.854L353.1 250.31C352.14 250.241 351.245 249.794 350.614 249.066C349.983 248.338 349.666 247.39 349.733 246.429Z" fill="#F2F2F2"/>
<path d="M353.501 232.285C350.435 224.355 352.396 213.448 355.667 201.766C355.732 200.866 356.151 200.028 356.832 199.437C357.514 198.846 358.402 198.549 359.302 198.612L390.114 200.799C391.014 200.863 391.851 201.283 392.443 201.964C393.034 202.645 393.33 203.534 393.268 204.434L390.27 246.678C390.205 247.578 389.786 248.415 389.105 249.006C388.423 249.597 387.535 249.894 386.635 249.831L367.547 248.477C363.539 248.188 359.81 246.321 357.176 243.286C354.543 240.25 353.222 236.294 353.501 232.285Z" fill="white"/>
<path d="M352.825 147.082L337.465 90.232C336.807 87.8254 335.229 85.7739 333.072 84.5203C330.915 83.2666 328.352 82.9114 325.935 83.5311C324.685 83.8517 323.513 84.4236 322.491 85.2119C321.469 86.0002 320.618 86.9883 319.991 88.1161C319.363 89.2439 318.972 90.4877 318.84 91.7717C318.709 93.0557 318.841 94.353 319.227 95.5845L336.992 154.149L346.287 190.19C344.933 191.224 343.931 192.649 343.415 194.272C342.9 195.896 342.897 197.638 343.406 199.264C343.915 200.889 344.913 202.318 346.263 203.357C347.613 204.395 349.25 204.993 350.951 205.069C352.653 205.145 354.336 204.695 355.773 203.781C357.21 202.867 358.331 201.532 358.983 199.959C359.636 198.385 359.788 196.649 359.419 194.986C359.05 193.324 358.178 191.815 356.922 190.665L352.825 147.082Z" fill="#FFB6B6"/>
<path d="M242.053 156.917L257.805 100.174C258.465 97.7683 258.153 95.1992 256.935 93.0213C255.718 90.8435 253.693 89.2316 251.298 88.5335C250.059 88.1723 248.759 88.0673 247.478 88.2248C246.197 88.3823 244.962 88.7991 243.847 89.4497C242.732 90.1003 241.762 90.9711 240.995 92.0091C240.227 93.047 239.68 94.2303 239.385 95.4868L224.83 154.931L214.463 190.678C212.772 190.878 211.183 191.593 209.912 192.727C208.641 193.861 207.75 195.359 207.361 197.017C206.971 198.675 207.101 200.413 207.733 201.995C208.366 203.576 209.469 204.925 210.895 205.857C212.32 206.789 213.998 207.26 215.7 207.206C217.403 207.151 219.047 206.574 220.41 205.553C221.773 204.531 222.788 203.115 223.318 201.496C223.848 199.878 223.867 198.135 223.372 196.505L242.053 156.917Z" fill="#FFB6B6"/>
<path d="M332.192 374.884L322.154 374.883L317.38 336.169L332.193 336.169L332.192 374.884Z" fill="#FFB6B6"/>
<path d="M332.545 385.355L301.68 385.353V384.963C301.68 381.777 302.946 378.721 305.199 376.468C307.452 374.215 310.507 372.95 313.693 372.95L319.332 368.672L329.851 372.95L332.545 372.95L332.545 385.355Z" fill="#2F2E41"/>
<path d="M261.558 374.985L251.677 373.222L253.772 334.27L268.356 336.871L261.558 374.985Z" fill="#FFB6B6"/>
<path d="M260.068 385.355L229.682 379.936L229.75 379.551C230.31 376.415 232.092 373.629 234.706 371.806C237.319 369.984 240.549 369.274 243.686 369.833L249.988 366.612L259.593 372.67L262.245 373.143L260.068 385.355Z" fill="#2F2E41"/>
<path d="M262.537 196.88C262.537 196.88 253.183 210.129 253.564 214.575C253.945 219.022 257.249 215.475 253.945 219.022C250.642 222.569 248.717 220.189 250.34 224.571C251.963 228.953 252.624 226.115 251.963 228.953C251.302 231.791 252.624 340.328 252.624 340.328H269.825C269.825 340.328 279.526 277.393 278.298 274.455C277.07 271.517 277.098 272.796 278.405 269.673C279.713 266.551 280.943 262.836 280.943 262.836L294.539 224.571L305.028 278.448L317.373 342.469H333.857C333.857 342.469 336.68 248.325 337.928 247.152C339.176 245.979 337.683 243.342 336.117 241.823C334.551 240.303 334.863 238.761 335.368 235.63C335.872 232.5 338.001 230.754 337.928 228.79C337.855 226.825 342.479 195.612 335.212 190.646C327.944 185.68 262.537 196.88 262.537 196.88Z" fill="#2F2E41"/>
<path d="M320.052 64.904L300.811 59.918L291.829 47.5302L270.499 50.1524L265.958 67.0495L250.772 75.8641C277.994 76.0268 263.334 154.889 267.335 159.978C270.591 164.118 251.084 173.969 257.198 180.252C263.312 186.536 261.051 184.022 259.633 190.863C258.214 197.704 247.873 204.943 259.633 204.872C271.393 204.8 342.354 203.786 340.327 195.676C338.299 187.566 338.331 189.626 335.274 184.541C332.217 179.456 330.159 182.298 331.188 174.795C332.217 167.292 328.875 161.488 331.203 158.168C334.776 153.072 331.175 116.283 327.806 117.265L320.052 64.904Z" fill="#5C7DF2"/>
<path d="M314.559 65.167C314.559 65.167 328.633 59.1875 333.702 70.3386C335.321 73.9002 336.684 82.8462 337.998 80.8624C339.311 78.8786 338.044 83.2276 338.857 83.2329C339.583 83.2377 340.698 82.0639 339.855 86.1078C339.591 87.4344 339.667 88.8062 340.076 90.0954C340.485 91.3846 341.214 92.5491 342.195 93.4805L317.732 108.131L314.559 65.167Z" fill="#5C7DF2"/>
<path d="M261.676 75.3044C261.676 75.3044 247.601 69.3249 242.532 80.476C241.107 83.6121 241.461 90.5806 238.685 89.7982C235.909 89.0159 237.88 91.9636 237.514 92.9876C237.106 94.1289 238.888 97.3588 236.385 96.2286C233.882 95.0983 234.039 103.618 234.039 103.618L258.502 118.269L261.676 75.3044Z" fill="#5C7DF2"/>
<path d="M268.349 58.6038L264.294 65.6999C264.294 65.6999 253.143 71.7823 253.143 72.7961C253.143 73.8098 255.171 82.0874 253.143 88.5928C251.116 95.0983 257.013 107.333 258.212 117.401C263.28 159.978 248.207 175.448 245.033 202.555L277.201 211.95C277.201 211.95 282.541 140.717 282.541 124.497C282.541 108.277 268.349 58.6038 268.349 58.6038Z" fill="#2F2E41"/>
<path d="M297.747 55.5625L306.034 60.276C306.034 60.276 316.879 62.667 317.008 63.6724C317.138 64.6779 317.176 75.3637 320.018 81.557C322.86 87.7502 322.077 91.0434 329.731 109.352C333.641 118.706 342.619 193.549 342.619 193.549L311.914 206.976C311.914 206.976 297.519 137.009 295.447 120.922C293.375 104.835 297.747 55.5625 297.747 55.5625Z" fill="#2F2E41"/>
<path d="M277.027 45.8974C288.603 45.8974 297.988 36.5128 297.988 24.9363C297.988 13.3598 288.603 3.97516 277.027 3.97516C265.45 3.97516 256.065 13.3598 256.065 24.9363C256.065 36.5128 265.45 45.8974 277.027 45.8974Z" fill="#FFB6B6"/>
<path d="M290.821 41.2223C285.866 37.3493 292.639 20.3118 284.457 23.9484C284.457 23.9484 274.456 17.5844 272.447 21.7664C270.121 26.6089 261.846 24.4121 256.764 22.7029C257.164 21.7744 257.448 20.8004 257.61 19.8027C256.671 20.5418 255.678 21.2075 254.637 21.7937C253.939 21.4208 253.321 20.9141 252.818 20.3027C252.323 19.7349 252.013 19.029 251.93 18.2798C251.847 17.5306 251.995 16.7739 252.355 16.1115C253.2 14.8114 254.946 14.4114 255.973 13.2568C256.092 13.0944 256.169 12.9057 256.199 12.7067C256.229 12.5078 256.21 12.3046 256.144 12.1147C256.021 11.6501 256.003 11.1643 256.09 10.6918C256.177 10.2192 256.366 9.77169 256.646 9.38098C256.926 8.99026 257.288 8.66601 257.707 8.4313C258.126 8.1966 258.592 8.05724 259.071 8.02313C259.264 8.02902 259.455 7.98737 259.628 7.90185C260.49 7.37397 261.287 6.74526 262.001 6.029C260.81 6.08355 262.266 -1.20677 274.074 0.174048C277.047 0.0649599 278.6 3.34371 281.527 3.86193C288.623 -0.19302 294.958 5.65627 298.04 11.2475C301.122 16.8388 304.458 34.8582 290.821 41.2223Z" fill="#2F2E41"/>
<path d="M201.382 11.1519H13.4864C9.9118 11.1549 6.48432 12.5758 3.95598 15.1027C1.42764 17.6296 0.0049467 21.0563 0 24.631V193.94C0.0046484 197.516 1.42702 200.943 3.95521 203.471C6.4834 206 9.91103 207.422 13.4864 207.427H201.382C204.957 207.422 208.383 205.999 210.91 203.471C213.437 200.942 214.858 197.515 214.861 193.94V24.631C214.858 21.0571 213.437 17.6306 210.91 15.1035C208.383 12.5764 204.956 11.1552 201.382 11.1519Z" fill="white"/>
<path d="M115.53 50.0111H95.4566C94.4707 50.0111 93.5252 49.6195 92.828 48.9224C92.1309 48.2252 91.7393 47.2797 91.7393 46.2938C91.7393 45.3079 92.1309 44.3624 92.828 43.6653C93.5252 42.9681 94.4707 42.5765 95.4566 42.5765H115.53C116.516 42.5765 117.462 42.9681 118.159 43.6653C118.856 44.3624 119.247 45.3079 119.247 46.2938C119.247 47.2797 118.856 48.2252 118.159 48.9224C117.462 49.6195 116.516 50.0111 115.53 50.0111Z" fill="#5C7DF2"/>
<path d="M381.69 220.809H361.617C360.631 220.809 359.685 220.417 358.988 219.72C358.291 219.023 357.899 218.077 357.899 217.092C357.899 216.106 358.291 215.16 358.988 214.463C359.685 213.766 360.631 213.374 361.617 213.374H381.69C382.676 213.374 383.622 213.766 384.319 214.463C385.016 215.16 385.408 216.106 385.408 217.092C385.408 218.077 385.016 219.023 384.319 219.72C383.622 220.417 382.676 220.809 381.69 220.809Z" fill="#5C7DF2"/>
<path d="M167.572 127.876H43.4136C42.4277 127.876 41.4822 127.484 40.7851 126.787C40.0879 126.09 39.6963 125.144 39.6963 124.159C39.6963 123.173 40.0879 122.227 40.7851 121.53C41.4822 120.833 42.4277 120.441 43.4136 120.441H167.572C168.558 120.441 169.504 120.833 170.201 121.53C170.898 122.227 171.289 123.173 171.289 124.159C171.289 125.144 170.898 126.09 170.201 126.787C169.504 127.484 168.558 127.876 167.572 127.876Z" fill="#E6E6E6"/>
<path d="M167.572 152.41H43.4136C42.4277 152.41 41.4822 152.019 40.7851 151.321C40.0879 150.624 39.6963 149.679 39.6963 148.693C39.6963 147.707 40.0879 146.761 40.7851 146.064C41.4822 145.367 42.4277 144.976 43.4136 144.976H167.572C168.558 144.976 169.504 145.367 170.201 146.064C170.898 146.761 171.289 147.707 171.289 148.693C171.289 149.679 170.898 150.624 170.201 151.321C169.504 152.019 168.558 152.41 167.572 152.41Z" fill="#E6E6E6"/>
<path d="M167.572 176.945H43.4136C42.4277 176.945 41.4822 176.553 40.7851 175.856C40.0879 175.159 39.6963 174.213 39.6963 173.227C39.6963 172.241 40.0879 171.296 40.7851 170.599C41.4822 169.902 42.4277 169.51 43.4136 169.51H167.572C168.558 169.51 169.504 169.902 170.201 170.599C170.898 171.296 171.289 172.241 171.289 173.227C171.289 174.213 170.898 175.159 170.201 175.856C169.504 176.553 168.558 176.945 167.572 176.945Z" fill="#E6E6E6"/>
<path d="M142.195 61.1647H68.7931C65.2184 61.1677 61.791 62.5886 59.2626 65.1155C56.7343 67.6424 55.3116 71.0691 55.3066 74.6437V96.7469C55.3113 100.322 56.7337 103.75 59.2619 106.278C61.79 108.806 65.2177 110.229 68.7931 110.233H142.195C145.77 110.228 149.197 108.806 151.724 106.277C154.251 103.749 155.671 100.322 155.674 96.7469V74.6437C155.671 71.0699 154.25 67.6433 151.723 65.1162C149.196 62.5892 145.769 61.168 142.195 61.1647ZM154.187 96.7469C154.187 99.9294 152.923 102.982 150.673 105.232C148.423 107.482 145.37 108.746 142.188 108.746H89.4965C80.8231 108.746 72.505 105.301 66.372 99.168C60.239 93.035 56.7936 84.7169 56.7936 76.0435V74.6437C56.7986 71.4635 58.0647 68.4151 60.3142 66.167C62.5636 63.919 65.6128 62.6548 68.7931 62.6517H142.195C145.375 62.655 148.423 63.9196 150.671 66.1678C152.919 68.416 154.184 71.4643 154.187 74.6437V96.7469Z" fill="#E6E6E6"/>
<path d="M106.316 93.6765C113.296 93.6765 118.955 88.0179 118.955 81.0376C118.955 74.0573 113.296 68.3987 106.316 68.3987C99.3354 68.3987 93.6768 74.0573 93.6768 81.0376C93.6768 88.0179 99.3354 93.6765 106.316 93.6765Z" fill="#E6E6E6"/>
<path d="M135.393 110.233L78.8076 110.033L96.6508 105.572L98.8737 98.234L115.981 98.1373L121.103 105.394L134.04 108.747L135.214 109.051L135.393 110.233Z" fill="#E6E6E6"/>
<path d="M99.1326 89.1072C101.845 86.9872 98.1373 77.6613 102.616 79.6519C102.616 79.6519 108.09 76.1684 109.19 78.4576C110.464 81.1082 114.993 79.9057 117.775 78.9702C117.556 78.4619 117.4 77.9288 117.312 77.3826C117.825 77.7872 118.369 78.1516 118.939 78.4725C119.321 78.2683 119.659 77.991 119.934 77.6563C120.206 77.3456 120.375 76.9592 120.421 76.5491C120.466 76.139 120.385 75.7248 120.188 75.3622C119.725 74.6506 118.77 74.4316 118.207 73.7996C118.142 73.7107 118.1 73.6074 118.084 73.4985C118.068 73.3896 118.078 73.2784 118.114 73.1744C118.181 72.9201 118.191 72.6542 118.144 72.3956C118.096 72.1369 117.992 71.8919 117.839 71.6781C117.686 71.4642 117.488 71.2867 117.258 71.1582C117.029 71.0298 116.774 70.9535 116.512 70.9348C116.406 70.938 116.302 70.9152 116.207 70.8684C115.735 70.5795 115.299 70.2353 114.908 69.8433C115.56 69.8731 114.763 65.8826 108.299 66.6384C106.672 66.5787 105.822 68.3734 104.22 68.6571C100.336 66.4375 96.8683 69.6392 95.1813 72.6998C93.4943 75.7603 91.6679 85.6237 99.1326 89.1072Z" fill="#E6E6E6"/>
<path d="M201.382 11.1519H13.4864C9.9118 11.1549 6.48432 12.5758 3.95598 15.1027C1.42764 17.6296 0.0049467 21.0563 0 24.631V193.94C0.0046484 197.516 1.42702 200.943 3.95521 203.471C6.4834 206 9.91103 207.422 13.4864 207.427H201.382C204.957 207.422 208.383 205.999 210.91 203.471C213.437 200.942 214.858 197.515 214.861 193.94V24.631C214.858 21.0571 213.437 17.6306 210.91 15.1035C208.383 12.5764 204.956 11.1552 201.382 11.1519ZM213.374 193.94C213.374 197.123 212.11 200.175 209.86 202.425C207.609 204.675 204.557 205.94 201.375 205.94H98.2866C85.5746 205.94 72.9872 203.436 61.2429 198.571C49.4987 193.707 38.8276 186.576 29.8389 177.588C20.8502 168.599 13.72 157.928 8.85534 146.184C3.99071 134.439 1.48692 121.852 1.48693 109.14V24.631C1.49199 21.4507 2.75808 18.4023 5.00754 16.1542C7.257 13.9062 10.3062 12.642 13.4864 12.6389H201.382C204.562 12.6423 207.61 13.9068 209.858 16.155C212.106 18.4032 213.371 21.4515 213.374 24.631V193.94Z" fill="#E6E6E6"/>
<path d="M397.685 386.559L163.227 386.787C162.993 386.786 162.769 386.692 162.604 386.526C162.439 386.36 162.347 386.136 162.347 385.902C162.347 385.668 162.439 385.443 162.604 385.278C162.769 385.112 162.993 385.018 163.227 385.017L397.685 384.788C397.919 384.789 398.143 384.883 398.308 385.049C398.473 385.215 398.565 385.44 398.565 385.674C398.565 385.908 398.473 386.132 398.308 386.298C398.143 386.464 397.919 386.558 397.685 386.559Z" fill="#CACACA"/>
</g>
<defs>
<clipPath id="clip0_510_1069">
<rect width="400" height="386.787" fill="white"/>
</clipPath>
</defs>
</svg>
