<svg width="30" height="29" viewBox="0 0 30 29" fill="none" xmlns="http://www.w3.org/2000/svg">
<path d="M9 22.9049C7.35 22.9049 6.015 24.1933 6.015 25.768C6.015 27.3427 7.35 28.6311 9 28.6311C10.65 28.6311 12 27.3427 12 25.768C12 24.1933 10.65 22.9049 9 22.9049ZM0 0V2.86311H3L8.4 13.7286L6.375 17.2359C6.135 17.6367 6 18.1091 6 18.6102C6 20.1849 7.35 21.4733 9 21.4733H27V18.6102H9.63C9.42 18.6102 9.255 18.4527 9.255 18.2523L9.3 18.0805L10.65 15.7471H21.825C22.95 15.7471 23.94 15.1602 24.45 14.2726L29.82 4.98181C29.94 4.78139 30 4.53802 30 4.29466C30 3.50731 29.325 2.86311 28.5 2.86311H6.315L4.905 0H0ZM24 22.9049C22.35 22.9049 21.015 24.1933 21.015 25.768C21.015 27.3427 22.35 28.6311 24 28.6311C25.65 28.6311 27 27.3427 27 25.768C27 24.1933 25.65 22.9049 24 22.9049Z" fill="#4361CC"/>
</svg>
