<svg width="30" height="30" viewBox="0 0 30 30" fill="none" xmlns="http://www.w3.org/2000/svg">
<path d="M16.1147 15L29.7692 1.34551C30.0769 1.03773 30.0769 0.538718 29.7692 0.230935C29.4613 -0.0768472 28.9624 -0.0768472 28.6545 0.230935L15 13.8853L1.34559 0.230837C1.0378 -0.0769456 0.538792 -0.0769456 0.231009 0.230837C-0.0768718 0.538619 -0.0768718 1.03763 0.231009 1.34542L13.8854 15L0.230911 28.6544C-0.0769702 28.9623 -0.0769702 29.4612 0.230911 29.7691C0.384802 29.923 0.586476 29.9999 0.788249 29.9999C0.990022 29.9999 1.1917 29.923 1.34559 29.7691L15 16.1146L28.6545 29.7691C28.8085 29.923 29.01 29.9999 29.2118 29.9999C29.4136 29.9999 29.6153 29.923 29.7692 29.7691C30.0769 29.4612 30.0769 28.9623 29.7692 28.6544L16.1147 15Z" fill="#5C7DF2"/>
</svg>
