<svg width="30" height="30" viewBox="0 0 30 30" fill="none" xmlns="http://www.w3.org/2000/svg">
<g clip-path="url(#clip0_134_537)">
<path d="M0.234375 8.90625H29.7656V0.46875H0.234375V8.90625ZM2.10938 2.34375H27.8906V7.03125H2.10938V2.34375Z" fill="#5C7DF2"/>
<path d="M0.234375 19.2188H29.7656V10.7812H0.234375V19.2188ZM2.10938 12.6562H27.8906V17.3438H2.10938V12.6562Z" fill="#5C7DF2"/>
<path d="M0.234375 29.7656H29.7656V21.3281H0.234375V29.7656ZM2.10938 23.2031H27.8906V27.8906H2.10938V23.2031Z" fill="#5C7DF2"/>
<path d="M5.39062 3.75H3.51562V5.625H5.39062V3.75Z" fill="#5C7DF2"/>
<path d="M9.14062 3.75H7.26562V5.625H9.14062V3.75Z" fill="#5C7DF2"/>
<path d="M12.8906 3.75H11.0156V5.625H12.8906V3.75Z" fill="#5C7DF2"/>
<path d="M5.39062 13.8281H3.51562V15.7031H5.39062V13.8281Z" fill="#5C7DF2"/>
<path d="M9.14062 13.8281H7.26562V15.7031H9.14062V13.8281Z" fill="#5C7DF2"/>
<path d="M12.8906 13.8281H11.0156V15.7031H12.8906V13.8281Z" fill="#5C7DF2"/>
<path d="M5.39062 24.6094H3.51562V26.4844H5.39062V24.6094Z" fill="#5C7DF2"/>
<path d="M9.14062 24.6094H7.26562V26.4844H9.14062V24.6094Z" fill="#5C7DF2"/>
<path d="M12.8906 24.6094H11.0156V26.4844H12.8906V24.6094Z" fill="#5C7DF2"/>
</g>
<defs>
<clipPath id="clip0_134_537">
<rect width="30" height="30" fill="white"/>
</clipPath>
</defs>
</svg>
