<svg width="110" height="50" viewBox="0 0 110 50" fill="none" xmlns="http://www.w3.org/2000/svg">
<path d="M24.6092 -6.10352e-05V4.7902e-05C11.0111 0.0400213 6.10352e-05 11.0757 6.10352e-05 24.6832C6.10352e-05 38.3154 11.0511 49.3665 24.6834 49.3665C35.5411 49.3665 44.7614 42.356 48.0648 32.6145H61.9354C65.2387 42.356 74.4591 49.3665 85.3168 49.3665C98.949 49.3665 110 38.3154 110 24.6832C110 11.0757 98.989 0.0400213 85.3909 4.79021e-05V-6.10352e-05H24.6092Z" fill="white"/>
<path d="M28.3533 13.3061C28.3533 11.2792 26.7102 9.63611 24.6833 9.63611C22.6563 9.63611 21.0132 11.2792 21.0132 13.3062V16.5658C21.0132 19.0221 19.022 21.0132 16.5658 21.0132H13.3061C11.2792 21.0132 9.63608 22.6564 9.63608 24.6833C9.63608 26.7102 11.2792 28.3533 13.3061 28.3533H16.5658C19.022 28.3533 21.0132 30.3445 21.0132 32.8008V36.0604C21.0132 38.0873 22.6563 39.7305 24.6833 39.7305C26.7102 39.7305 28.3533 38.0873 28.3533 36.0604V32.8008C28.3533 30.3445 30.3445 28.3533 32.8007 28.3533H36.0604C38.0873 28.3533 39.7304 26.7102 39.7304 24.6833C39.7304 22.6564 38.0873 21.0132 36.0604 21.0132H32.8007C30.3445 21.0132 28.3533 19.022 28.3533 16.5658V13.3061Z" fill="#5C7DF2"/>
<path d="M89.8382 14.0835C89.8382 16.5398 87.8471 18.531 85.3908 18.531C82.9346 18.531 80.9434 16.5398 80.9434 14.0835C80.9434 11.6273 82.9346 9.63611 85.3908 9.63611C87.8471 9.63611 89.8382 11.6273 89.8382 14.0835Z" fill="#5C7DF2"/>
<path d="M89.8382 35.283C89.8382 37.7393 87.8471 39.7305 85.3908 39.7305C82.9346 39.7305 80.9434 37.7393 80.9434 35.283C80.9434 32.8268 82.9346 30.8356 85.3908 30.8356C87.8471 30.8356 89.8382 32.8268 89.8382 35.283Z" fill="#5C7DF2"/>
<path d="M79.3126 24.7574C79.3126 27.2137 77.3214 29.2048 74.8652 29.2048C72.4089 29.2048 70.4178 27.2137 70.4178 24.7574C70.4178 22.3012 72.4089 20.31 74.8652 20.31C77.3214 20.31 79.3126 22.3012 79.3126 24.7574Z" fill="#5C7DF2"/>
<path d="M100.364 24.7574C100.364 27.2137 98.3727 29.2048 95.9164 29.2048C93.4602 29.2048 91.469 27.2137 91.469 24.7574C91.469 22.3012 93.4602 20.31 95.9164 20.31C98.3727 20.31 100.364 22.3012 100.364 24.7574Z" fill="#5C7DF2"/>
</svg>
