<svg width="300" height="243" viewBox="0 0 300 243" fill="none" xmlns="http://www.w3.org/2000/svg">
<g clip-path="url(#clip0_515_1197)">
<path d="M199.771 242.348L199.707 242.342L100.229 233.101L9.77093 241.505C7.4091 241.724 5.05685 240.996 3.23165 239.481C1.40645 237.966 0.257804 235.788 0.0384103 233.426C0.0128748 233.151 9.6808e-05 232.876 7.46201e-05 232.599V17.4621C-0.0090558 15.2307 0.820002 13.0773 2.32311 11.4281C3.82621 9.77891 5.89377 8.75424 8.11643 8.55697L100.229 0L100.293 0.00604332L199.771 9.24695L290.229 0.843836C292.591 0.624428 294.943 1.35224 296.768 2.86717C298.594 4.38209 299.742 6.56002 299.962 8.92186C299.987 9.19683 300 9.47254 300 9.74899V224.886C300.009 227.117 299.18 229.271 297.677 230.92C296.174 232.569 294.106 233.594 291.884 233.791L199.771 242.348Z" fill="#3F3D56"/>
<path d="M138.669 79.5902C119.413 65.5659 99.1521 52.2674 78.4545 40.0663L77.4157 39.454V80.8354H140.379L138.669 79.5902ZM78.7916 79.4594V41.8653C98.4814 53.5126 117.762 66.1507 136.148 79.4595L78.7916 79.4594ZM236.124 164.634C227.796 155.975 219.252 147.515 210.493 139.251C208.079 136.97 205.649 134.708 203.204 132.464C188.286 118.76 172.876 105.726 156.976 93.3633L156.79 93.2189H77.4157V165.8H237.245L236.124 164.634ZM78.7916 164.424V94.5948H156.319C171.651 106.521 186.567 119.114 201.068 132.375C203.586 134.676 206.087 136.996 208.57 139.334C217.253 147.493 225.732 155.856 234.008 164.424H78.7916ZM236.124 164.634C227.796 155.975 219.252 147.515 210.493 139.251C208.079 136.97 205.649 134.708 203.204 132.464C188.286 118.76 172.876 105.726 156.976 93.3633L156.79 93.2189H77.4157V165.8H237.245L236.124 164.634ZM78.7916 164.424V94.5948H156.319C171.651 106.521 186.567 119.114 201.068 132.375C203.586 134.676 206.087 136.996 208.57 139.334C217.253 147.493 225.732 155.856 234.008 164.424H78.7916ZM138.669 79.5902C119.413 65.5659 99.1521 52.2674 78.4545 40.0663L77.4157 39.454V80.8354H140.379L138.669 79.5902ZM78.7916 79.4594V41.8653C98.4814 53.5126 117.762 66.1507 136.148 79.4595L78.7916 79.4594ZM138.669 79.5902C119.413 65.5659 99.1521 52.2674 78.4545 40.0663L77.4157 39.454V80.8354H140.379L138.669 79.5902ZM78.7916 79.4594V41.8653C98.4814 53.5126 117.762 66.1507 136.148 79.4595L78.7916 79.4594ZM236.124 164.634C227.796 155.975 219.252 147.515 210.493 139.251C208.079 136.97 205.649 134.708 203.204 132.464C188.286 118.76 172.876 105.726 156.976 93.3633L156.79 93.2189H77.4157V165.8H237.245L236.124 164.634ZM78.7916 164.424V94.5948H156.319C171.651 106.521 186.567 119.114 201.068 132.375C203.586 134.676 206.087 136.996 208.57 139.334C217.253 147.493 225.732 155.856 234.008 164.424H78.7916ZM9.31348 178.183V179.559H63.6563V199.51H9.31348V200.886H65.0322V178.183H9.31348ZM77.4157 213.27V227.211L78.7916 227.084V214.646H290.687V213.27L77.4157 213.27ZM290.687 179.559V178.183H77.4157V200.886H290.687V199.51H78.7916V179.559L290.687 179.559ZM162.191 79.4594C135.794 59.097 107.917 40.729 78.7916 24.5078V10.5764L77.4157 10.7037V24.7429L78.4752 25.9078C107.482 42.0849 135.246 60.3964 161.537 80.6909L161.723 80.8354H290.687V79.4594L162.191 79.4594ZM63.6562 79.4594H9.31348V80.8354H65.0322V11.8526L63.6563 11.9799L63.6562 79.4594ZM290.687 93.2189H177.312L178.795 94.4366C192.754 105.922 206.459 118.104 219.912 130.982C221.824 132.812 223.73 134.656 225.629 136.516C235.081 145.752 244.349 155.29 253.433 165.129L254.567 165.8H290.687V164.424H254.654C245.669 154.682 236.489 145.223 227.115 136.045C225.24 134.208 223.358 132.384 221.47 130.572C208.309 117.945 194.867 105.952 181.144 94.5948H290.687V93.2189ZM9.31348 213.27V214.646H63.6563V228.488L65.0322 228.36V213.27H9.31348ZM9.31348 93.2189V94.5948H63.6563V164.424H9.31348V165.8H65.0322V93.2189H9.31348ZM138.669 79.5902C119.413 65.5659 99.1521 52.2674 78.4545 40.0663L77.4157 39.454V80.8354H140.379L138.669 79.5902ZM78.7916 79.4594V41.8653C98.4814 53.5126 117.762 66.1507 136.148 79.4595L78.7916 79.4594ZM236.124 164.634C227.796 155.975 219.252 147.515 210.493 139.251C208.079 136.97 205.649 134.708 203.204 132.464C188.286 118.76 172.876 105.726 156.976 93.3633L156.79 93.2189H77.4157V165.8H237.245L236.124 164.634ZM78.7916 164.424V94.5948H156.319C171.651 106.521 186.567 119.114 201.068 132.375C203.586 134.676 206.087 136.996 208.57 139.334C217.253 147.493 225.732 155.856 234.008 164.424H78.7916ZM138.669 79.5902C119.413 65.5659 99.1521 52.2674 78.4545 40.0663L77.4157 39.454V80.8354H140.379L138.669 79.5902ZM78.7916 79.4594V41.8653C98.4814 53.5126 117.762 66.1507 136.148 79.4595L78.7916 79.4594ZM236.124 164.634C227.796 155.975 219.252 147.515 210.493 139.251C208.079 136.97 205.649 134.708 203.204 132.464C188.286 118.76 172.876 105.726 156.976 93.3633L156.79 93.2189H77.4157V165.8H237.245L236.124 164.634ZM78.7916 164.424V94.5948H156.319C171.651 106.521 186.567 119.114 201.068 132.375C203.586 134.676 206.087 136.996 208.57 139.334C217.253 147.493 225.732 155.856 234.008 164.424H78.7916Z" fill="white"/>
<path d="M153.653 90.5455C153.653 107.969 122.104 146.784 122.104 146.784C122.104 146.784 90.5562 107.969 90.5562 90.5455C90.5562 82.1784 93.88 74.154 99.7964 68.2376C105.713 62.3211 113.737 58.9973 122.104 58.9973C130.471 58.9973 138.496 62.3211 144.412 68.2376C150.329 74.154 153.653 82.1784 153.653 90.5455Z" fill="#5C7DF2"/>
<path d="M136.527 89.174C136.527 92.0264 135.681 94.8148 134.096 97.1865C132.511 99.5582 130.259 101.407 127.624 102.498C124.988 103.59 122.089 103.875 119.291 103.319C116.493 102.762 113.924 101.389 111.907 99.3719C109.89 97.355 108.516 94.7852 107.96 91.9876C107.403 89.19 107.689 86.2902 108.78 83.6549C109.872 81.0196 111.721 78.7672 114.092 77.1825C116.464 75.5978 119.252 74.752 122.105 74.752C123.999 74.7511 125.875 75.1235 127.625 75.848C129.375 76.5725 130.965 77.6347 132.305 78.9741C133.644 80.3135 134.706 81.9037 135.431 83.6539C136.155 85.404 136.528 87.2798 136.527 89.174Z" fill="white"/>
<path d="M122.104 169.553C126.801 169.553 130.609 165.746 130.609 161.049C130.609 156.352 126.801 152.545 122.104 152.545C117.408 152.545 113.6 156.352 113.6 161.049C113.6 165.746 117.408 169.553 122.104 169.553Z" fill="#5C7DF2"/>
<path d="M203.587 54.2893C210.531 54.2893 216.161 48.6599 216.161 41.7157C216.161 34.7715 210.531 29.1421 203.587 29.1421C196.643 29.1421 191.014 34.7715 191.014 41.7157C191.014 48.6599 196.643 54.2893 203.587 54.2893Z" fill="#FF6584"/>
<path d="M243.016 80.4629H181.334C181.257 80.4639 181.18 80.4578 181.104 80.4446L210.276 29.913C210.454 29.5983 210.713 29.3365 211.025 29.1544C211.338 28.9722 211.693 28.8762 212.054 28.8762C212.416 28.8762 212.771 28.9722 213.083 29.1544C213.396 29.3365 213.654 29.5983 213.832 29.913L233.411 63.8237L234.349 65.4463L243.016 80.4629Z" fill="white"/>
<path opacity="0.2" d="M243.017 80.4628H221.957L232.295 65.446L233.039 64.3643L233.411 63.8235L234.349 65.446L243.017 80.4628Z" fill="black"/>
<path d="M277.361 80.4629H224.011L234.349 65.4463L235.093 64.3645L248.565 44.795C249.448 43.5124 251.572 43.4325 252.611 44.553C252.681 44.6295 252.745 44.7103 252.805 44.795L277.361 80.4629Z" fill="white"/>
<path d="M281.32 151.695C284.834 151.695 287.683 148.846 287.683 145.332C287.683 141.817 284.834 138.968 281.32 138.968C277.805 138.968 274.956 141.817 274.956 145.332C274.956 148.846 277.805 151.695 281.32 151.695Z" fill="white"/>
<path d="M281.933 164.5H280.63L281.224 144.373L281.933 164.5Z" fill="#CBCBCB"/>
<path d="M281.339 148.188L282.738 146.251L281.32 148.667L281.167 148.399L281.339 148.188Z" fill="#CBCBCB"/>
<path d="M281.186 150.143L279.786 148.207L281.205 150.622L281.358 150.353L281.186 150.143Z" fill="#CBCBCB"/>
<path d="M263.225 145.589C268.416 145.589 272.623 141.381 272.623 136.19C272.623 130.999 268.416 126.792 263.225 126.792C258.034 126.792 253.826 130.999 253.826 136.19C253.826 141.381 258.034 145.589 263.225 145.589Z" fill="white"/>
<path d="M264.131 164.5H262.206L263.083 134.775L264.131 164.5Z" fill="#CBCBCB"/>
<path d="M263.253 140.408L265.32 137.549L263.225 141.116L262.999 140.72L263.253 140.408Z" fill="#CBCBCB"/>
<path d="M263.027 143.296L260.96 140.437L263.055 144.003L263.281 143.607L263.027 143.296Z" fill="#CBCBCB"/>
<path d="M45.018 151.695C48.5326 151.695 51.3817 148.846 51.3817 145.332C51.3817 141.817 48.5326 138.968 45.018 138.968C41.5034 138.968 38.6543 141.817 38.6543 145.332C38.6543 148.846 41.5034 151.695 45.018 151.695Z" fill="white"/>
<path d="M45.6315 164.5H44.3281L44.9222 144.373L45.6315 164.5Z" fill="#CBCBCB"/>
<path d="M45.037 148.188L46.4365 146.251L45.0178 148.667L44.8647 148.399L45.037 148.188Z" fill="#CBCBCB"/>
<path d="M44.8839 150.143L43.4844 148.207L44.903 150.622L45.0561 150.353L44.8839 150.143Z" fill="#CBCBCB"/>
<path d="M26.9231 145.589C32.1138 145.589 36.3217 141.381 36.3217 136.19C36.3217 130.999 32.1138 126.792 26.9231 126.792C21.7323 126.792 17.5244 130.999 17.5244 136.19C17.5244 141.381 21.7323 145.589 26.9231 145.589Z" fill="white"/>
<path d="M27.8292 164.5H25.9043L26.7821 134.775L27.8292 164.5Z" fill="#CBCBCB"/>
<path d="M26.9519 140.408L29.0183 137.549L26.9236 141.116L26.6973 140.72L26.9519 140.408Z" fill="#CBCBCB"/>
<path d="M26.7255 143.296L24.6587 140.437L26.7538 144.003L26.9801 143.607L26.7255 143.296Z" fill="#CBCBCB"/>
</g>
<defs>
<clipPath id="clip0_515_1197">
<rect width="300" height="242.348" fill="white"/>
</clipPath>
</defs>
</svg>
