<svg width="30" height="30" viewBox="0 0 30 30" fill="none" xmlns="http://www.w3.org/2000/svg">
<g clip-path="url(#clip0_134_513)">
<path d="M12.6121 24.2086C12.2225 24.2086 11.8571 24.3599 11.582 24.635L11.5816 24.6353C11.3068 24.9101 11.1556 25.2763 11.1559 25.6648L11.1556 26.1444C11.1556 26.5339 11.3068 26.9001 11.5816 27.1749C11.8567 27.45 12.2229 27.6012 12.6121 27.6009L15.9669 27.6009C16.3564 27.6009 16.7219 27.4497 16.9967 27.1749C16.997 27.1745 16.997 27.1745 16.9973 27.1742C17.2721 26.8994 17.4231 26.5336 17.4231 26.1447L17.4231 25.6648C17.4231 24.8616 16.7701 24.2086 15.9669 24.2086L12.6121 24.2086ZM16.4538 25.6648L16.4538 26.1448C16.4538 26.2753 16.4033 26.3974 16.3116 26.4891L16.3113 26.4895C16.2196 26.5812 16.0974 26.6317 15.9669 26.6317L12.6121 26.6317L12.6118 26.6314C12.4816 26.6317 12.3591 26.5815 12.267 26.4894C12.1753 26.3977 12.1252 26.2753 12.1251 26.1447L12.1255 25.6644C12.1251 25.5343 12.1757 25.4121 12.2674 25.3204C12.3594 25.2284 12.4816 25.1778 12.6121 25.1778L15.9669 25.1779C16.0974 25.1778 16.2195 25.2284 16.3112 25.3201C16.403 25.4118 16.4539 25.5342 16.4538 25.6648Z" fill="#5C7DF2"/>
<path d="M12.6121 15.4843C11.8089 15.4843 11.1556 16.1376 11.1556 16.9408L11.1553 17.4211C11.1562 18.2239 11.8096 18.8772 12.6121 18.8772L15.9669 18.8772C16.3682 18.8775 16.732 18.7139 16.9957 18.4502C17.2594 18.1864 17.4231 17.822 17.4237 17.4204L17.4231 16.9411C17.4231 16.5509 17.2715 16.1851 16.9964 15.9099C16.7216 15.6359 16.3558 15.4843 15.9665 15.4846L12.6121 15.4843ZM16.4535 16.9414L16.4538 17.4204C16.4538 17.6901 16.2346 17.9073 15.9669 17.908L12.6121 17.908C12.3437 17.908 12.1251 17.6895 12.1248 17.4207L12.1251 16.9411C12.1251 16.8066 12.1797 16.6844 12.2677 16.5964C12.3561 16.5081 12.4779 16.4538 12.6121 16.4535L15.9665 16.4538C16.0971 16.4538 16.2192 16.5043 16.3116 16.5961C16.4033 16.6878 16.4538 16.8106 16.4535 16.9414Z" fill="#5C7DF2"/>
<path d="M12.6121 6.76062C12.2226 6.76062 11.8571 6.91192 11.582 7.18701L11.5816 7.18736C11.3069 7.46211 11.1556 7.82822 11.1552 8.21747L11.1556 8.69637C11.1556 9.08596 11.3069 9.45208 11.5816 9.72683C11.8568 10.002 12.2225 10.1529 12.6121 10.1529L15.9666 10.1533C16.3561 10.1532 16.7216 10.002 16.9967 9.72686L16.997 9.72652C17.2718 9.45174 17.4231 9.08559 17.4231 8.69675L17.4231 8.21682C17.4231 7.41358 16.7701 6.76061 15.9669 6.76061L12.6121 6.76062ZM16.4539 8.21678L16.4538 8.69671C16.4539 8.82721 16.4033 8.94939 16.3112 9.04145C16.2192 9.13346 16.0971 9.18401 15.9666 9.18401L12.6121 9.18366L12.6118 9.18332C12.4815 9.18367 12.3591 9.13346 12.267 9.04141C12.1754 8.94974 12.1251 8.82725 12.1255 8.69641L12.1248 8.21713C12.1248 8.08659 12.1754 7.96445 12.2674 7.87243C12.3594 7.78038 12.4815 7.72983 12.6121 7.72986L15.9669 7.72983C16.0974 7.72982 16.2196 7.78038 16.3113 7.87209C16.403 7.96376 16.4539 8.08627 16.4539 8.21678Z" fill="#5C7DF2"/>
<path d="M12.6121 19.8464C11.8088 19.8464 11.1555 20.4997 11.1555 21.303L11.1552 21.7832C11.1559 22.5858 11.8098 23.2391 12.6124 23.2391L15.9662 23.2394C16.3678 23.2394 16.7319 23.0761 16.996 22.812C17.2597 22.5483 17.423 22.1842 17.4237 21.7825L17.423 21.3027C17.423 20.9131 17.2718 20.5469 16.9963 20.2722C16.7219 19.9977 16.3557 19.8464 15.9668 19.8464L12.6121 19.8464ZM16.4535 21.303L16.4538 21.7826C16.4542 22.0506 16.2356 22.2698 15.9665 22.2698L12.6124 22.2698C12.344 22.2698 12.1248 22.0513 12.1248 21.7829L12.1248 21.303C12.1248 21.1724 12.1753 21.0503 12.2674 20.9583C12.3594 20.8662 12.4815 20.8157 12.6121 20.8157L15.9669 20.8157C16.0974 20.8157 16.2196 20.8662 16.3113 20.9579C16.4029 21.0496 16.4538 21.1721 16.4535 21.303Z" fill="#5C7DF2"/>
<path d="M12.6121 11.1228C11.8089 11.1228 11.1566 11.7764 11.1559 12.579L11.1556 13.0586C11.1556 13.4488 11.3072 13.8146 11.5823 14.0897C11.8574 14.3641 12.2229 14.5154 12.6121 14.5151L15.9669 14.515C16.3685 14.5151 16.7326 14.3517 16.996 14.0883C17.2597 13.8246 17.4231 13.4605 17.4231 13.0589L17.4234 12.5793C17.4234 12.1897 17.2721 11.8236 16.9973 11.5488C16.7222 11.2737 16.3561 11.1225 15.9669 11.1228L12.6121 11.1228ZM16.4538 12.579L16.4538 13.0589C16.4538 13.1894 16.4033 13.3116 16.3116 13.4033L16.3113 13.4036C16.2196 13.4953 16.0974 13.5458 15.9669 13.5459L12.6121 13.5458C12.4816 13.5458 12.3594 13.4953 12.2674 13.404C12.1757 13.3122 12.1251 13.1894 12.1251 13.0589L12.1251 12.5789C12.1251 12.4484 12.1757 12.3263 12.2674 12.2346L12.2677 12.2343C12.3594 12.1425 12.4816 12.092 12.6121 12.092L15.9672 12.0923C16.0974 12.092 16.2199 12.1422 16.3119 12.2343C16.4036 12.326 16.4538 12.4484 16.4538 12.579Z" fill="#5C7DF2"/>
<path d="M12.6121 2.39847C12.2225 2.39846 11.8571 2.54974 11.582 2.82483L11.5816 2.82518C11.3068 3.09996 11.1556 3.46607 11.1556 3.85498L11.1553 4.33525C11.1563 5.13812 11.8096 5.79142 12.6121 5.79142L15.9662 5.79142C16.3678 5.79139 16.732 5.62809 16.996 5.36403C17.2597 5.10032 17.4231 4.73615 17.4237 4.33457L17.4231 3.85532C17.4231 3.46508 17.2715 3.09927 16.9964 2.82415C16.7216 2.55008 16.3558 2.39847 15.9666 2.39881L12.6121 2.39847ZM16.4535 3.85563L16.4538 4.33457C16.4542 4.60263 16.2356 4.82187 15.9666 4.82183L12.6121 4.82221C12.3437 4.82221 12.1251 4.60366 12.1248 4.33491L12.1248 3.85498C12.1248 3.72444 12.1753 3.6023 12.2674 3.51025C12.3594 3.41823 12.4816 3.36768 12.6121 3.36768L15.9666 3.36803C16.0971 3.36803 16.2192 3.41854 16.3116 3.51025C16.4033 3.60196 16.4538 3.72479 16.4535 3.85563Z" fill="#5C7DF2"/>
<path d="M20.3314 0.944923L20.3314 -0.0242925L18.8772 -0.0243258L18.8772 -0.0246347L9.66895 -0.0246353L9.66861 30.0243L17.6657 30.0246L20.331 30.0246L20.3311 29.0554L18.8772 29.0554L18.8772 28.0859L20.3314 28.0859L20.3314 27.1166L18.8772 27.1166L18.8772 26.1473L20.331 26.1471L20.3311 25.1779L18.8772 25.178L18.8772 24.2086L20.3311 24.2086L20.331 23.2394L18.8772 23.2394L18.8772 22.2699L20.3314 22.2699L20.3314 21.3006L18.8772 21.3006L18.8772 20.3314L20.3314 20.3314L20.3314 19.3622H18.8772L18.8772 18.3924L20.331 18.3926L20.3311 17.4234L18.8772 17.4232L18.8772 16.454L20.3314 16.4538V13.5462L18.8772 13.546L18.8772 12.5764L20.3311 12.5766L20.331 11.6074L18.8773 11.6072L18.8772 10.638L20.3314 10.6378L20.3314 9.66861L18.8772 9.66879L18.8772 8.69923L20.3311 8.69906L20.3311 7.72981L18.8772 7.72998V6.76059L20.331 6.76059L20.3311 5.79138L18.8772 5.79138L18.8773 4.8223L20.3314 4.82246L20.3314 3.85325L18.8772 3.85308L18.8772 2.88335L20.3314 2.88335L20.3314 1.91414L18.8772 1.91414L18.8772 0.944922L20.3314 0.944923ZM19.3622 14.5154V15.4846L18.8772 15.485V14.515L19.3622 14.5154ZM17.908 13.5458V16.4542L17.908 29.0554L10.6378 29.0551L10.6382 0.94458L17.666 0.944571L17.666 0.944923L17.908 0.944923L17.908 13.5458Z" fill="#5C7DF2"/>
</g>
<defs>
<clipPath id="clip0_134_513">
<rect width="30" height="30" fill="white"/>
</clipPath>
</defs>
</svg>
