<svg width="30" height="21" viewBox="0 0 30 21" fill="none" xmlns="http://www.w3.org/2000/svg">
<path d="M0 1.15385C0 0.847827 0.121565 0.554341 0.337953 0.337953C0.554341 0.121565 0.847827 0 1.15385 0H28.8462C29.1522 0 29.4457 0.121565 29.662 0.337953C29.8784 0.554341 30 0.847827 30 1.15385C30 1.45987 29.8784 1.75335 29.662 1.96974C29.4457 2.18613 29.1522 2.30769 28.8462 2.30769H15H1.15385C0.847827 2.30769 0.554341 2.18613 0.337953 1.96974C0.121565 1.75335 0 1.45987 0 1.15385ZM28.8462 9.23077H1.15385C0.847827 9.23077 0.554341 9.35233 0.337953 9.56872C0.121565 9.78511 0 10.0786 0 10.3846C0 10.6906 0.121565 10.9841 0.337953 11.2005C0.554341 11.4169 0.847827 11.5385 1.15385 11.5385H28.8462C29.1522 11.5385 29.4457 11.4169 29.662 11.2005C29.8784 10.9841 30 10.6906 30 10.3846C30 10.0786 29.8784 9.78511 29.662 9.56872C29.4457 9.35233 29.1522 9.23077 28.8462 9.23077ZM28.8462 18.4615H1.15385C0.847827 18.4615 0.554341 18.5831 0.337953 18.7995C0.121565 19.0159 0 19.3094 0 19.6154C0 19.9214 0.121565 20.2149 0.337953 20.4313C0.554341 20.6477 0.847827 20.7692 1.15385 20.7692H28.8462C29.1522 20.7692 29.4457 20.6477 29.662 20.4313C29.8784 20.2149 30 19.9214 30 19.6154C30 19.3094 29.8784 19.0159 29.662 18.7995C29.4457 18.5831 29.1522 18.4615 28.8462 18.4615Z" fill="#5C7DF2"/>
</svg>
