<svg width="30" height="30" viewBox="0 0 30 30" fill="none" xmlns="http://www.w3.org/2000/svg">
<path d="M28.125 0H1.875C0.839062 0 0 0.895 0 2V23C0 24.105 0.839062 25 1.875 25H12.1875V28H8.90625C8.38875 28 7.96875 28.448 7.96875 29C7.96875 29.552 8.38875 30 8.90625 30H21.0938C21.6112 30 22.0312 29.552 22.0312 29C22.0312 28.448 21.6112 28 21.0938 28H17.8125V25H28.125C29.1609 25 30 24.105 30 23V2C30 0.895 29.1609 0 28.125 0ZM14.0625 28V25H15.9375V28H14.0625ZM28.125 23H1.875V19H28.125V23ZM28.125 17H1.875V2H28.125V17Z" fill="#5C7DF2"/>
</svg>
