<svg width="30" height="26" viewBox="0 0 30 26" fill="none" xmlns="http://www.w3.org/2000/svg">
<g clip-path="url(#clip0_134_499)">
<path d="M3.75 2.7037V0H0V1.07143H2.67857V2.7037V6.4537H0.535714V12.8823H2.67857V20.3823V25.7645H3.75V20.3823H4.82143V22.5251H30V2.7037H3.75V2.7037ZM1.60714 11.8108V7.52512H2.67857V11.8108H1.60714ZM28.9286 21.4537H5.89286V19.3108H3.75V12.8823V6.4537V3.77512H28.9286V21.4537Z" fill="#5C7DF2"/>
<path d="M6.96899 9.13226H11.2453C12.1341 9.13226 12.8571 8.41028 12.8571 7.5225V6.99203C12.8571 6.10425 12.1341 5.38226 11.2453 5.38226H6.96899C6.08013 5.38226 5.35715 6.10425 5.35715 6.99203V7.5225C5.35715 8.41028 6.08013 9.13226 6.96899 9.13226ZM6.42858 6.99203C6.42858 6.69541 6.67076 6.45369 6.96899 6.45369H11.2453C11.5435 6.45369 11.7857 6.69541 11.7857 6.99203V7.5225C11.7857 7.81912 11.5435 8.06083 11.2453 8.06083H6.96899C6.67076 8.06083 6.42858 7.81912 6.42858 7.5225V6.99203Z" fill="#5C7DF2"/>
<path d="M6.96899 13.9537H11.2453C12.1341 13.9537 12.8571 13.2317 12.8571 12.3439V11.8134C12.8571 10.9257 12.1341 10.2037 11.2453 10.2037H6.96899C6.08013 10.2037 5.35715 10.9257 5.35715 11.8134V12.3439C5.35715 13.2317 6.08013 13.9537 6.96899 13.9537ZM6.42858 11.8134C6.42858 11.5168 6.67076 11.2751 6.96899 11.2751H11.2453C11.5435 11.2751 11.7857 11.5168 11.7857 11.8134V12.3439C11.7857 12.6405 11.5435 12.8822 11.2453 12.8822H6.96899C6.67076 12.8822 6.42858 12.6405 6.42858 12.3439V11.8134Z" fill="#5C7DF2"/>
<path d="M16.6071 16.0966H25.1786V15.0251H26.25V13.9537H25.1786V13.418H26.25V12.3466H25.1786V11.8109H26.25V10.7394H25.1786V10.2037H26.25V9.13228H25.1786V8.06085H16.6071V9.13228H15.5357V10.2037H16.6071V10.7394H15.5357V11.8109H16.6071V12.3466H15.5357V13.418H16.6071V13.9537H15.5357V15.0251H16.6071V16.0966ZM17.6786 13.418V12.3466V11.8109V10.7394V10.2037V9.13228H24.1071V10.2037V10.7394V11.8109V12.3466V13.418V13.9537V15.0251H17.6786V13.9537V13.418Z" fill="#5C7DF2"/>
<path d="M11.25 18.2394C10.6593 18.2394 10.1786 18.7202 10.1786 19.3109C10.1786 19.9015 10.6593 20.3823 11.25 20.3823C11.8406 20.3823 12.3214 19.9015 12.3214 19.3109C12.3214 18.7202 11.8406 18.2394 11.25 18.2394Z" fill="#5C7DF2"/>
<path d="M14.4643 20.3823C15.0549 20.3823 15.5357 19.9015 15.5357 19.3109C15.5357 18.7202 15.0549 18.2394 14.4643 18.2394C13.8736 18.2394 13.3929 18.7202 13.3929 19.3109C13.3929 19.9015 13.8736 20.3823 14.4643 20.3823Z" fill="#5C7DF2"/>
<path d="M24.6429 18.2394C24.0522 18.2394 23.5714 18.7202 23.5714 19.3109C23.5714 19.9015 24.0522 20.3823 24.6429 20.3823C25.2335 20.3823 25.7143 19.9015 25.7143 19.3109C25.7143 18.7202 25.2335 18.2394 24.6429 18.2394Z" fill="#5C7DF2"/>
</g>
<defs>
<clipPath id="clip0_134_499">
<rect width="30" height="25.7645" fill="white"/>
</clipPath>
</defs>
</svg>
