<svg width="28" height="28" viewBox="0 0 28 28" fill="none" xmlns="http://www.w3.org/2000/svg">
<mask id="path-1-inside-1_134_498" fill="white">
<path d="M16.8125 9H11.1875C10.6075 9.00066 10.0515 9.23134 9.64143 9.64143C9.23134 10.0515 9.00066 10.6075 9 11.1875V16.8125C9.00066 17.3925 9.23134 17.9485 9.64143 18.3586C10.0515 18.7687 10.6075 18.9993 11.1875 19H16.8125C17.3925 18.9993 17.9485 18.7687 18.3586 18.3586C18.7687 17.9485 18.9993 17.3925 19 16.8125V11.1875C18.9993 10.6075 18.7687 10.0515 18.3586 9.64143C17.9485 9.23134 17.3925 9.00066 16.8125 9ZM16.5 16.5H11.5V11.5H16.5V16.5ZM26.5 10.25C26.8315 10.25 27.1495 10.1183 27.3839 9.88388C27.6183 9.64946 27.75 9.33152 27.75 9C27.75 8.66848 27.6183 8.35054 27.3839 8.11612C27.1495 7.8817 26.8315 7.75 26.5 7.75H24V7.4375C23.9993 6.52602 23.637 5.65206 22.9924 5.00755C22.3479 4.36304 21.474 4.00066 20.5625 4H20.25V1.5C20.25 1.16848 20.1183 0.850537 19.8839 0.616116C19.6495 0.381696 19.3315 0.25 19 0.25C18.6685 0.25 18.3505 0.381696 18.1161 0.616116C17.8817 0.850537 17.75 1.16848 17.75 1.5V4H15.25V1.5C15.25 1.16848 15.1183 0.850537 14.8839 0.616116C14.6495 0.381696 14.3315 0.25 14 0.25C13.6685 0.25 13.3505 0.381696 13.1161 0.616116C12.8817 0.850537 12.75 1.16848 12.75 1.5V4H10.25V1.5C10.25 1.16848 10.1183 0.850537 9.88388 0.616116C9.64946 0.381696 9.33152 0.25 9 0.25C8.66848 0.25 8.35054 0.381696 8.11612 0.616116C7.8817 0.850537 7.75 1.16848 7.75 1.5V4H7.4375C6.52602 4.00066 5.65206 4.36304 5.00755 5.00755C4.36304 5.65206 4.00066 6.52602 4 7.4375V7.75H1.5C1.16848 7.75 0.850537 7.8817 0.616116 8.11612C0.381696 8.35054 0.25 8.66848 0.25 9C0.25 9.33152 0.381696 9.64946 0.616116 9.88388C0.850537 10.1183 1.16848 10.25 1.5 10.25H4V12.75H1.5C1.16848 12.75 0.850537 12.8817 0.616116 13.1161C0.381696 13.3505 0.25 13.6685 0.25 14C0.25 14.3315 0.381696 14.6495 0.616116 14.8839C0.850537 15.1183 1.16848 15.25 1.5 15.25H4V17.75H1.5C1.16848 17.75 0.850537 17.8817 0.616116 18.1161C0.381696 18.3505 0.25 18.6685 0.25 19C0.25 19.3315 0.381696 19.6495 0.616116 19.8839C0.850537 20.1183 1.16848 20.25 1.5 20.25H4V20.5625C4.00066 21.474 4.36304 22.3479 5.00755 22.9924C5.65206 23.637 6.52602 23.9993 7.4375 24H7.75V26.5C7.75 26.8315 7.8817 27.1495 8.11612 27.3839C8.35054 27.6183 8.66848 27.75 9 27.75C9.33152 27.75 9.64946 27.6183 9.88388 27.3839C10.1183 27.1495 10.25 26.8315 10.25 26.5V24H12.75V26.5C12.75 26.8315 12.8817 27.1495 13.1161 27.3839C13.3505 27.6183 13.6685 27.75 14 27.75C14.3315 27.75 14.6495 27.6183 14.8839 27.3839C15.1183 27.1495 15.25 26.8315 15.25 26.5V24H17.75V26.5C17.75 26.8315 17.8817 27.1495 18.1161 27.3839C18.3505 27.6183 18.6685 27.75 19 27.75C19.3315 27.75 19.6495 27.6183 19.8839 27.3839C20.1183 27.1495 20.25 26.8315 20.25 26.5V24H20.5625C21.474 23.9993 22.3479 23.637 22.9924 22.9924C23.637 22.3479 23.9993 21.474 24 20.5625V20.25H26.5C26.8315 20.25 27.1495 20.1183 27.3839 19.8839C27.6183 19.6495 27.75 19.3315 27.75 19C27.75 18.6685 27.6183 18.3505 27.3839 18.1161C27.1495 17.8817 26.8315 17.75 26.5 17.75H24V15.25H26.5C26.8315 15.25 27.1495 15.1183 27.3839 14.8839C27.6183 14.6495 27.75 14.3315 27.75 14C27.75 13.6685 27.6183 13.3505 27.3839 13.1161C27.1495 12.8817 26.8315 12.75 26.5 12.75H24V10.25H26.5ZM21.5 20.5625C21.4997 20.811 21.4008 21.0493 21.225 21.225C21.0493 21.4008 20.811 21.4997 20.5625 21.5H7.4375C7.18896 21.4997 6.9507 21.4008 6.77495 21.225C6.59921 21.0493 6.50033 20.811 6.5 20.5625V7.4375C6.50033 7.18896 6.59921 6.9507 6.77495 6.77495C6.9507 6.59921 7.18896 6.50033 7.4375 6.5H20.5625C20.811 6.50033 21.0493 6.59921 21.225 6.77495C21.4008 6.9507 21.4997 7.18896 21.5 7.4375V20.5625Z"/>
</mask>
<path d="M16.8125 9H11.1875C10.6075 9.00066 10.0515 9.23134 9.64143 9.64143C9.23134 10.0515 9.00066 10.6075 9 11.1875V16.8125C9.00066 17.3925 9.23134 17.9485 9.64143 18.3586C10.0515 18.7687 10.6075 18.9993 11.1875 19H16.8125C17.3925 18.9993 17.9485 18.7687 18.3586 18.3586C18.7687 17.9485 18.9993 17.3925 19 16.8125V11.1875C18.9993 10.6075 18.7687 10.0515 18.3586 9.64143C17.9485 9.23134 17.3925 9.00066 16.8125 9ZM16.5 16.5H11.5V11.5H16.5V16.5ZM26.5 10.25C26.8315 10.25 27.1495 10.1183 27.3839 9.88388C27.6183 9.64946 27.75 9.33152 27.75 9C27.75 8.66848 27.6183 8.35054 27.3839 8.11612C27.1495 7.8817 26.8315 7.75 26.5 7.75H24V7.4375C23.9993 6.52602 23.637 5.65206 22.9924 5.00755C22.3479 4.36304 21.474 4.00066 20.5625 4H20.25V1.5C20.25 1.16848 20.1183 0.850537 19.8839 0.616116C19.6495 0.381696 19.3315 0.25 19 0.25C18.6685 0.25 18.3505 0.381696 18.1161 0.616116C17.8817 0.850537 17.75 1.16848 17.75 1.5V4H15.25V1.5C15.25 1.16848 15.1183 0.850537 14.8839 0.616116C14.6495 0.381696 14.3315 0.25 14 0.25C13.6685 0.25 13.3505 0.381696 13.1161 0.616116C12.8817 0.850537 12.75 1.16848 12.75 1.5V4H10.25V1.5C10.25 1.16848 10.1183 0.850537 9.88388 0.616116C9.64946 0.381696 9.33152 0.25 9 0.25C8.66848 0.25 8.35054 0.381696 8.11612 0.616116C7.8817 0.850537 7.75 1.16848 7.75 1.5V4H7.4375C6.52602 4.00066 5.65206 4.36304 5.00755 5.00755C4.36304 5.65206 4.00066 6.52602 4 7.4375V7.75H1.5C1.16848 7.75 0.850537 7.8817 0.616116 8.11612C0.381696 8.35054 0.25 8.66848 0.25 9C0.25 9.33152 0.381696 9.64946 0.616116 9.88388C0.850537 10.1183 1.16848 10.25 1.5 10.25H4V12.75H1.5C1.16848 12.75 0.850537 12.8817 0.616116 13.1161C0.381696 13.3505 0.25 13.6685 0.25 14C0.25 14.3315 0.381696 14.6495 0.616116 14.8839C0.850537 15.1183 1.16848 15.25 1.5 15.25H4V17.75H1.5C1.16848 17.75 0.850537 17.8817 0.616116 18.1161C0.381696 18.3505 0.25 18.6685 0.25 19C0.25 19.3315 0.381696 19.6495 0.616116 19.8839C0.850537 20.1183 1.16848 20.25 1.5 20.25H4V20.5625C4.00066 21.474 4.36304 22.3479 5.00755 22.9924C5.65206 23.637 6.52602 23.9993 7.4375 24H7.75V26.5C7.75 26.8315 7.8817 27.1495 8.11612 27.3839C8.35054 27.6183 8.66848 27.75 9 27.75C9.33152 27.75 9.64946 27.6183 9.88388 27.3839C10.1183 27.1495 10.25 26.8315 10.25 26.5V24H12.75V26.5C12.75 26.8315 12.8817 27.1495 13.1161 27.3839C13.3505 27.6183 13.6685 27.75 14 27.75C14.3315 27.75 14.6495 27.6183 14.8839 27.3839C15.1183 27.1495 15.25 26.8315 15.25 26.5V24H17.75V26.5C17.75 26.8315 17.8817 27.1495 18.1161 27.3839C18.3505 27.6183 18.6685 27.75 19 27.75C19.3315 27.75 19.6495 27.6183 19.8839 27.3839C20.1183 27.1495 20.25 26.8315 20.25 26.5V24H20.5625C21.474 23.9993 22.3479 23.637 22.9924 22.9924C23.637 22.3479 23.9993 21.474 24 20.5625V20.25H26.5C26.8315 20.25 27.1495 20.1183 27.3839 19.8839C27.6183 19.6495 27.75 19.3315 27.75 19C27.75 18.6685 27.6183 18.3505 27.3839 18.1161C27.1495 17.8817 26.8315 17.75 26.5 17.75H24V15.25H26.5C26.8315 15.25 27.1495 15.1183 27.3839 14.8839C27.6183 14.6495 27.75 14.3315 27.75 14C27.75 13.6685 27.6183 13.3505 27.3839 13.1161C27.1495 12.8817 26.8315 12.75 26.5 12.75H24V10.25H26.5ZM21.5 20.5625C21.4997 20.811 21.4008 21.0493 21.225 21.225C21.0493 21.4008 20.811 21.4997 20.5625 21.5H7.4375C7.18896 21.4997 6.9507 21.4008 6.77495 21.225C6.59921 21.0493 6.50033 20.811 6.5 20.5625V7.4375C6.50033 7.18896 6.59921 6.9507 6.77495 6.77495C6.9507 6.59921 7.18896 6.50033 7.4375 6.5H20.5625C20.811 6.50033 21.0493 6.59921 21.225 6.77495C21.4008 6.9507 21.4997 7.18896 21.5 7.4375V20.5625Z" fill="#5C7DF2" stroke="#5C7DF2" stroke-width="2" mask="url(#path-1-inside-1_134_498)"/>
</svg>
